<?xml version="1.0" encoding="UTF-8" standalone="no"?>
<!DOCTYPE svg PUBLIC "-//W3C//DTD SVG 1.1//EN" "http://www.w3.org/Graphics/SVG/1.1/DTD/svg11.dtd">
<svg xmlns="http://www.w3.org/2000/svg" version="1.1" viewBox="0.00 0.00 444.00 370.00">
<g stroke-width="2.00" fill="none" stroke-linecap="butt">
<path stroke="#8b6f1a" vector-effect="non-scaling-stroke" d="
  M 218.03 46.51
  A 0.37 0.37 0.0 0 0 217.66 46.14
  L 213.48 46.14
  A 0.37 0.37 0.0 0 0 213.11 46.51
  L 213.11 82.03
  A 0.37 0.37 0.0 0 0 213.48 82.40
  L 217.66 82.40
  A 0.37 0.37 0.0 0 0 218.03 82.03
  L 218.03 46.51"
/>
<path stroke="#8b6f1a" vector-effect="non-scaling-stroke" d="
  M 236.27 70.01
  A 0.34 0.34 0.0 0 0 236.73 69.79
  L 237.97 65.64
  A 0.34 0.34 0.0 0 0 237.75 65.23
  L 234.08 63.99
  A 0.34 0.34 0.0 0 0 233.66 64.16
  L 231.89 67.87
  A 0.34 0.34 0.0 0 0 232.07 68.33
  L 236.27 70.01"
/>
<path stroke="#8b6f1a" vector-effect="non-scaling-stroke" d="
  M 197.5468 64.1478
  A 0.52 0.52 0.0 0 0 196.8640 63.8747
  L 193.2978 65.4032
  A 0.52 0.52 0.0 0 0 193.0247 66.0860
  L 194.5532 69.6522
  A 0.52 0.52 0.0 0 0 195.2360 69.9253
  L 198.8022 68.3968
  A 0.52 0.52 0.0 0 0 199.0753 67.7140
  L 197.5468 64.1478"
/>
<path stroke="#8b6f1a" vector-effect="non-scaling-stroke" d="
  M 169.4459 64.5194
  A 0.43 0.43 0.0 0 0 168.8378 64.5194
  L 166.0094 67.3478
  A 0.43 0.43 0.0 0 0 166.0094 67.9559
  L 187.7741 89.7206
  A 0.43 0.43 0.0 0 0 188.3822 89.7206
  L 191.2106 86.8922
  A 0.43 0.43 0.0 0 0 191.2106 86.2841
  L 169.4459 64.5194"
/>
<path stroke="#8b6f1a" vector-effect="non-scaling-stroke" d="
  M 264.8953 67.9718
  A 0.46 0.46 0.0 0 0 264.8941 67.3212
  L 262.0749 64.5119
  A 0.46 0.46 0.0 0 0 261.4244 64.5130
  L 239.8247 86.1882
  A 0.46 0.46 0.0 0 0 239.8259 86.8388
  L 242.6451 89.6481
  A 0.46 0.46 0.0 0 0 243.2956 89.6470
  L 264.8953 67.9718"
/>
<path stroke="#8b6f1a" vector-effect="non-scaling-stroke" d="
  M 201.21 73.13
  A 0.67 0.67 0.0 0 0 200.27 72.80
  L 197.18 74.48
  A 0.67 0.67 0.0 0 0 196.88 75.32
  L 200.93 85.24
  A 0.67 0.67 0.0 0 0 201.88 85.57
  L 205.02 83.78
  A 0.67 0.67 0.0 0 0 205.31 82.94
  L 201.21 73.13"
/>
<path stroke="#8b6f1a" vector-effect="non-scaling-stroke" d="
  M 234.2173 75.1059
  A 0.68 0.68 0.0 0 0 233.8462 74.2188
  L 230.6080 72.8907
  A 0.68 0.68 0.0 0 0 229.7208 73.2618
  L 225.6227 83.2541
  A 0.68 0.68 0.0 0 0 225.9938 84.1412
  L 229.2320 85.4693
  A 0.68 0.68 0.0 0 0 230.1192 85.0982
  L 234.2173 75.1059"
/>
<path stroke="#8b6f1a" vector-effect="non-scaling-stroke" d="
  M 149.6787 87.5981
  A 1.00 1.00 0.0 0 0 149.0609 86.3259
  L 146.3017 85.3704
  A 1.00 1.00 0.0 0 0 145.0295 85.9882
  L 144.0413 88.8419
  A 1.00 1.00 0.0 0 0 144.6591 90.1141
  L 147.4183 91.0696
  A 1.00 1.00 0.0 0 0 148.6905 90.4518
  L 149.6787 87.5981"
/>
<path stroke="#8b6f1a" vector-effect="non-scaling-stroke" d="
  M 285.9054 85.9078
  A 1.01 1.01 0.0 0 0 284.5965 85.3360
  L 281.8592 86.4087
  A 1.01 1.01 0.0 0 0 281.2873 87.7176
  L 282.3746 90.4922
  A 1.01 1.01 0.0 0 0 283.6835 91.0640
  L 286.4208 89.9913
  A 1.01 1.01 0.0 0 0 286.9927 88.6824
  L 285.9054 85.9078"
/>
<path stroke="#8b6f1a" vector-effect="non-scaling-stroke" d="
  M 214.93 94.15
  A 0.83 0.82 45.2 0 1 216.09 94.16
  Q 221.70 99.82 225.92 106.58
  Q 226.24 107.08 226.67 106.67
  Q 231.28 102.23 237.46 100.47
  A 0.82 0.82 0.0 0 0 237.89 99.18
  C 225.75 83.49 204.06 83.04 192.93 99.78
  Q 192.63 100.21 193.14 100.35
  Q 199.58 102.07 204.33 106.74
  A 0.44 0.44 0.0 0 0 205.01 106.66
  Q 209.19 99.80 214.93 94.15"
/>
<path stroke="#8b6f1a" vector-effect="non-scaling-stroke" d="
  M 167.7593 94.8343
  A 0.55 0.55 0.0 0 0 167.4604 94.1162
  L 154.9421 88.9565
  A 0.55 0.55 0.0 0 0 154.2240 89.2554
  L 152.7607 92.8057
  A 0.55 0.55 0.0 0 0 153.0596 93.5238
  L 165.5779 98.6835
  A 0.55 0.55 0.0 0 0 166.2960 98.3846
  L 167.7593 94.8343"
/>
<path stroke="#8b6f1a" vector-effect="non-scaling-stroke" d="
  M 276.8505 89.5506
  A 0.90 0.90 0.0 0 0 275.6746 89.0635
  L 263.7750 93.9925
  A 0.90 0.90 0.0 0 0 263.2879 95.1684
  L 264.4895 98.0694
  A 0.90 0.90 0.0 0 0 265.6654 98.5565
  L 277.5650 93.6275
  A 0.90 0.90 0.0 0 0 278.0521 92.4516
  L 276.8505 89.5506"
/>
<path stroke="#8b6f1a" vector-effect="non-scaling-stroke" d="
  M 201.51 132.51
  Q 210.77 137.78 215.16 147.45
  A 0.37 0.37 0.0 0 0 215.84 147.45
  Q 220.17 137.92 229.21 132.66
  A 0.95 0.95 0.0 0 0 229.67 131.72
  Q 227.42 114.17 215.88 100.85
  Q 215.51 100.41 215.13 100.85
  Q 203.50 114.30 201.26 132.02
  A 0.49 0.49 0.0 0 0 201.51 132.51"
/>
<path stroke="#8b6f1a" vector-effect="non-scaling-stroke" d="
  M 181.11 128.67
  C 186.27 128.64 190.95 128.73 196.03 130.04
  A 0.63 0.63 0.0 0 0 196.81 129.52
  Q 198.12 120.57 201.87 112.36
  A 1.48 1.46 -56.0 0 0 201.55 110.68
  C 197.15 106.46 193.85 105.13 187.30 104.43
  Q 182.17 103.88 177.22 102.63
  A 0.31 0.31 0.0 0 0 176.84 102.92
  C 176.69 112.40 173.84 119.64 179.95 128.08
  A 1.44 1.44 0.0 0 0 181.11 128.67"
/>
<path stroke="#8b6f1a" vector-effect="non-scaling-stroke" d="
  M 234.67 130.21
  C 239.63 128.56 244.84 128.60 249.98 128.68
  A 1.15 1.11 -70.6 0 0 250.90 128.22
  C 256.84 120.19 254.61 112.29 254.27 103.18
  Q 254.25 102.59 253.67 102.72
  C 244.74 104.77 235.95 103.43 229.25 110.98
  A 1.32 1.31 -37.1 0 0 229.05 112.41
  Q 233.03 120.73 234.14 129.87
  A 0.41 0.40 77.3 0 0 234.67 130.21"
/>
<path stroke="#8b6f1a" vector-effect="non-scaling-stroke" d="
  M 171.9529 112.3213
  A 0.79 0.79 0.0 0 0 171.1643 111.5300
  L 148.3043 111.4901
  A 0.79 0.79 0.0 0 0 147.5129 112.2787
  L 147.5071 115.6187
  A 0.79 0.79 0.0 0 0 148.2957 116.4100
  L 171.1557 116.4499
  A 0.79 0.79 0.0 0 0 171.9471 115.6613
  L 171.9529 112.3213"
/>
<path stroke="#8b6f1a" vector-effect="non-scaling-stroke" d="
  M 283.3932 112.1612
  A 0.63 0.63 0.0 0 0 282.7643 111.5301
  L 259.7643 111.4899
  A 0.63 0.63 0.0 0 0 259.1332 112.1188
  L 259.1268 115.7788
  A 0.63 0.63 0.0 0 0 259.7557 116.4099
  L 282.7557 116.4501
  A 0.63 0.63 0.0 0 0 283.3868 115.8212
  L 283.3932 112.1612"
/>
<path stroke="#8b6f1a" vector-effect="non-scaling-stroke" d="
  M 186.12 133.36
  Q 175.56 133.23 165.10 133.31
  A 0.37 0.37 0.0 0 0 164.74 133.73
  C 166.51 147.78 177.83 157.70 192.01 157.65
  Q 201.99 157.62 212.08 157.66
  Q 212.94 157.66 212.82 156.81
  C 210.87 143.28 200.07 133.52 186.12 133.36"
/>
<path stroke="#8b6f1a" vector-effect="non-scaling-stroke" d="
  M 237.65 134.40
  C 227.56 137.11 219.15 146.19 218.02 157.21
  A 0.49 0.48 -87.4 0 0 218.51 157.75
  Q 228.65 157.57 238.94 157.49
  Q 255.49 157.36 263.42 143.12
  Q 265.82 138.81 266.04 133.81
  Q 266.07 133.26 265.51 133.26
  C 256.58 133.36 245.01 132.42 237.65 134.40"
/>
<path stroke="#8b6f1a" vector-effect="non-scaling-stroke" d="
  M 209.51 162.49
  A 0.89 0.89 0.0 0 0 208.99 164.10
  L 213.69 167.48
  A 0.89 0.89 0.0 0 0 214.38 167.63
  L 218.80 166.76
  A 0.89 0.89 0.0 0 0 219.28 166.50
  L 221.63 163.99
  A 0.89 0.89 0.0 0 0 220.98 162.49
  L 209.51 162.49"
/>
<path stroke="#8b6f1a" vector-effect="non-scaling-stroke" d="
  M 218.0040 172.6858
  A 0.60 0.60 0.0 0 0 217.4029 172.0868
  L 213.7430 172.0932
  A 0.60 0.60 0.0 0 0 213.1440 172.6943
  L 213.1760 191.0342
  A 0.60 0.60 0.0 0 0 213.7771 191.6332
  L 217.4370 191.6268
  A 0.60 0.60 0.0 0 0 218.0360 191.0257
  L 218.0040 172.6858"
/>
<path stroke="#8b6f1a" vector-effect="non-scaling-stroke" d="
  M 46.17 232.03
  Q 52.90 231.87 59.63 231.98
  C 64.70 232.07 67.94 233.20 69.12 238.29
  Q 69.99 242.04 68.22 244.25
  C 66.46 246.43 62.55 249.22 65.18 252.32
  C 66.62 254.01 68.47 255.77 69.10 257.81
  C 71.08 264.30 65.16 269.38 58.75 267.89
  A 1.20 1.17 -14.8 0 1 58.20 267.58
  L 43.96 253.38
  A 3.42 3.41 -42.9 0 0 39.32 253.22
  L 38.62 253.82
  Q 35.43 256.57 38.37 259.58
  Q 46.36 267.80 53.58 274.89
  C 54.46 275.75 55.63 276.37 56.75 276.47
  C 64.66 277.23 71.77 275.19 75.76 267.77
  C 79.33 261.13 77.61 256.85 74.93 250.47
  A 1.23 1.21 -44.7 0 1 74.94 249.49
  C 75.97 247.26 77.21 244.97 77.57 242.67
  C 78.72 235.38 74.86 228.11 68.17 225.05
  Q 65.25 223.72 59.14 223.57
  Q 50.20 223.35 41.24 223.68
  Q 37.44 223.82 37.32 227.49
  Q 37.11 233.84 37.24 240.21
  C 37.29 242.87 38.20 243.80 39.94 245.56
  Q 45.88 251.58 54.79 260.25
  A 3.24 3.24 0.0 0 0 59.21 260.34
  L 59.87 259.76
  A 4.06 4.06 0.0 0 0 60.03 253.86
  L 45.99 239.85
  Q 45.59 239.45 45.58 238.89
  L 45.49 232.74
  Q 45.47 232.04 46.17 232.03"
/>
<path stroke="#8b6f1a" vector-effect="non-scaling-stroke" d="
  M 227.37 246.19
  A 0.36 0.36 0.0 0 1 227.73 245.83
  L 239.53 245.83
  A 3.26 3.25 -88.7 0 0 242.78 242.72
  L 242.82 241.74
  Q 243.01 237.47 238.74 237.48
  L 227.95 237.49
  Q 227.40 237.49 227.39 236.95
  L 227.25 226.60
  A 3.02 3.02 0.0 0 0 224.06 223.63
  L 222.93 223.69
  Q 219.05 223.92 219.00 227.81
  Q 218.81 242.88 219.04 256.49
  C 219.23 267.74 227.29 276.36 238.75 276.28
  Q 243.12 276.25 242.95 272.50
  C 242.77 268.45 239.34 268.41 236.49 267.79
  C 225.59 265.43 227.24 254.52 227.37 246.19"
/>
<path stroke="#8b6f1a" vector-effect="non-scaling-stroke" d="
  M 349.98 227.93
  C 337.06 217.40 317.97 226.94 317.79 243.50
  C 317.68 252.59 316.24 261.86 322.73 269.52
  C 329.63 277.67 341.91 278.89 350.14 272.14
  C 358.66 265.15 357.52 255.97 357.42 244.76
  Q 357.33 233.92 349.98 227.93"
/>
<path stroke="#8b6f1a" vector-effect="non-scaling-stroke" d="
  M 93.30 261.71
  A 0.33 0.33 0.0 0 1 93.59 261.22
  Q 105.75 261.29 118.01 261.13
  C 122.22 261.08 123.23 258.29 122.61 254.58
  C 120.31 240.77 104.94 232.47 92.85 240.61
  C 78.79 250.08 81.85 271.45 98.48 275.84
  Q 108.67 278.53 116.69 270.95
  C 119.74 268.07 117.72 263.30 113.83 263.93
  C 111.56 264.30 109.72 266.72 107.80 267.30
  Q 97.84 270.31 93.30 261.71"
/>
<path stroke="#8b6f1a" vector-effect="non-scaling-stroke" d="
  M 159.96 273.72
  L 160.48 274.98
  A 1.45 1.38 -85.6 0 0 161.02 275.64
  C 164.02 277.58 167.99 275.96 168.00 272.13
  Q 168.02 257.19 167.99 242.25
  C 167.98 237.53 161.71 235.62 160.06 240.22
  A 0.86 0.86 0.0 0 1 158.81 240.66
  C 145.22 232.34 128.25 242.21 128.98 258.32
  C 129.53 270.63 141.03 278.28 152.77 276.07
  C 155.05 275.64 156.97 274.47 159.11 273.40
  A 0.63 0.62 -24.1 0 1 159.96 273.72"
/>
<path stroke="#8b6f1a" vector-effect="non-scaling-stroke" d="
  M 203.88 261.28
  C 200.58 270.38 186.54 270.33 183.09 261.24
  Q 182.28 259.10 182.28 253.63
  Q 182.28 248.11 182.10 241.49
  Q 181.99 237.65 178.15 237.55
  L 177.35 237.53
  A 3.08 3.08 0.0 0 0 174.19 240.48
  Q 173.78 249.54 174.01 257.50
  C 174.49 274.55 194.96 282.89 207.07 270.80
  C 214.83 263.07 213.28 251.29 212.82 241.57
  A 4.09 4.09 0.0 0 0 208.90 237.68
  L 208.01 237.64
  A 2.97 2.97 0.0 0 0 204.92 240.51
  Q 204.70 247.50 204.68 253.61
  Q 204.67 259.13 203.88 261.28"
/>
<path stroke="#8b6f1a" vector-effect="non-scaling-stroke" d="
  M 279.81 274.01
  Q 278.29 279.74 272.24 281.76
  C 270.35 282.39 267.44 281.88 265.89 283.71
  C 263.51 286.51 265.79 291.21 269.50 290.73
  Q 283.21 288.95 287.34 277.66
  Q 288.83 273.57 288.83 264.67
  Q 288.83 253.58 288.73 241.94
  Q 288.70 238.02 284.79 237.76
  L 283.85 237.70
  A 3.02 3.02 0.0 0 0 280.63 240.63
  Q 280.43 247.71 280.41 254.08
  Q 280.39 258.30 279.84 260.11
  C 276.88 269.79 263.46 270.99 258.82 262.02
  Q 257.54 259.54 257.50 255.23
  Q 257.43 248.70 257.32 240.85
  A 3.15 3.15 0.0 0 0 254.18 237.74
  L 253.26 237.73
  Q 249.38 237.71 249.15 241.58
  C 248.38 254.58 247.58 267.60 259.23 273.98
  C 265.63 277.47 273.03 277.35 279.30 273.62
  Q 280.03 273.18 279.81 274.01"
/>
<path stroke="#8b6f1a" vector-effect="non-scaling-stroke" d="
  M 371.82 253.75
  C 371.70 243.75 385.15 243.48 385.22 252.75
  Q 385.28 260.03 385.44 272.11
  Q 385.49 276.03 389.41 276.32
  L 390.34 276.39
  A 3.02 3.02 0.0 0 0 393.58 273.48
  Q 393.94 262.54 393.66 252.25
  C 393.37 241.12 382.50 234.89 372.45 238.91
  C 370.76 239.59 369.92 238.06 368.54 237.78
  C 364.45 236.95 363.51 240.22 363.49 243.61
  Q 363.41 256.44 363.55 272.20
  Q 363.59 276.14 367.52 276.37
  L 368.46 276.42
  A 3.04 3.04 0.0 0 0 371.68 273.46
  Q 371.93 263.04 371.82 253.75"
/>
<path stroke="#8b6f1a" vector-effect="non-scaling-stroke" d="
  M 349.12 242.83
  A 10.69 10.69 0.0 0 0 338.43 232.14
  L 337.03 232.14
  A 10.69 10.69 0.0 0 0 326.34 242.83
  L 326.34 257.27
  A 10.69 10.69 0.0 0 0 337.03 267.96
  L 338.43 267.96
  A 10.69 10.69 0.0 0 0 349.12 257.27
  L 349.12 242.83"
/>
<path stroke="#8b6f1a" vector-effect="non-scaling-stroke" d="
  M 109.76 248.03
  A 8.02 8.02 0.0 0 0 104.18 245.89
  Q 97.10 245.99 93.49 251.78
  Q 92.90 252.72 94.02 252.73
  L 111.53 252.82
  Q 114.95 252.84 112.44 250.51
  L 109.76 248.03"
/>
<path stroke="#8b6f1a" vector-effect="non-scaling-stroke" d="
  M 159.51 257.00
  A 11.14 11.14 0.0 0 0 148.37 245.86
  A 11.14 11.14 0.0 0 0 137.23 257.00
  A 11.14 11.14 0.0 0 0 148.37 268.14
  A 11.14 11.14 0.0 0 0 159.51 257.00"
/>
</g>
<path fill="#1a1926" d="
  M 0.00 0.00
  L 444.00 0.00
  L 444.00 370.00
  L 0.00 370.00
  L 0.00 0.00
  Z
  M 218.03 46.51
  A 0.37 0.37 0.0 0 0 217.66 46.14
  L 213.48 46.14
  A 0.37 0.37 0.0 0 0 213.11 46.51
  L 213.11 82.03
  A 0.37 0.37 0.0 0 0 213.48 82.40
  L 217.66 82.40
  A 0.37 0.37 0.0 0 0 218.03 82.03
  L 218.03 46.51
  Z
  M 236.27 70.01
  A 0.34 0.34 0.0 0 0 236.73 69.79
  L 237.97 65.64
  A 0.34 0.34 0.0 0 0 237.75 65.23
  L 234.08 63.99
  A 0.34 0.34 0.0 0 0 233.66 64.16
  L 231.89 67.87
  A 0.34 0.34 0.0 0 0 232.07 68.33
  L 236.27 70.01
  Z
  M 197.5468 64.1478
  A 0.52 0.52 0.0 0 0 196.8640 63.8747
  L 193.2978 65.4032
  A 0.52 0.52 0.0 0 0 193.0247 66.0860
  L 194.5532 69.6522
  A 0.52 0.52 0.0 0 0 195.2360 69.9253
  L 198.8022 68.3968
  A 0.52 0.52 0.0 0 0 199.0753 67.7140
  L 197.5468 64.1478
  Z
  M 169.4459 64.5194
  A 0.43 0.43 0.0 0 0 168.8378 64.5194
  L 166.0094 67.3478
  A 0.43 0.43 0.0 0 0 166.0094 67.9559
  L 187.7741 89.7206
  A 0.43 0.43 0.0 0 0 188.3822 89.7206
  L 191.2106 86.8922
  A 0.43 0.43 0.0 0 0 191.2106 86.2841
  L 169.4459 64.5194
  Z
  M 264.8953 67.9718
  A 0.46 0.46 0.0 0 0 264.8941 67.3212
  L 262.0749 64.5119
  A 0.46 0.46 0.0 0 0 261.4244 64.5130
  L 239.8247 86.1882
  A 0.46 0.46 0.0 0 0 239.8259 86.8388
  L 242.6451 89.6481
  A 0.46 0.46 0.0 0 0 243.2956 89.6470
  L 264.8953 67.9718
  Z
  M 201.21 73.13
  A 0.67 0.67 0.0 0 0 200.27 72.80
  L 197.18 74.48
  A 0.67 0.67 0.0 0 0 196.88 75.32
  L 200.93 85.24
  A 0.67 0.67 0.0 0 0 201.88 85.57
  L 205.02 83.78
  A 0.67 0.67 0.0 0 0 205.31 82.94
  L 201.21 73.13
  Z
  M 234.2173 75.1059
  A 0.68 0.68 0.0 0 0 233.8462 74.2188
  L 230.6080 72.8907
  A 0.68 0.68 0.0 0 0 229.7208 73.2618
  L 225.6227 83.2541
  A 0.68 0.68 0.0 0 0 225.9938 84.1412
  L 229.2320 85.4693
  A 0.68 0.68 0.0 0 0 230.1192 85.0982
  L 234.2173 75.1059
  Z
  M 149.6787 87.5981
  A 1.00 1.00 0.0 0 0 149.0609 86.3259
  L 146.3017 85.3704
  A 1.00 1.00 0.0 0 0 145.0295 85.9882
  L 144.0413 88.8419
  A 1.00 1.00 0.0 0 0 144.6591 90.1141
  L 147.4183 91.0696
  A 1.00 1.00 0.0 0 0 148.6905 90.4518
  L 149.6787 87.5981
  Z
  M 285.9054 85.9078
  A 1.01 1.01 0.0 0 0 284.5965 85.3360
  L 281.8592 86.4087
  A 1.01 1.01 0.0 0 0 281.2873 87.7176
  L 282.3746 90.4922
  A 1.01 1.01 0.0 0 0 283.6835 91.0640
  L 286.4208 89.9913
  A 1.01 1.01 0.0 0 0 286.9927 88.6824
  L 285.9054 85.9078
  Z
  M 214.93 94.15
  A 0.83 0.82 45.2 0 1 216.09 94.16
  Q 221.70 99.82 225.92 106.58
  Q 226.24 107.08 226.67 106.67
  Q 231.28 102.23 237.46 100.47
  A 0.82 0.82 0.0 0 0 237.89 99.18
  C 225.75 83.49 204.06 83.04 192.93 99.78
  Q 192.63 100.21 193.14 100.35
  Q 199.58 102.07 204.33 106.74
  A 0.44 0.44 0.0 0 0 205.01 106.66
  Q 209.19 99.80 214.93 94.15
  Z
  M 167.7593 94.8343
  A 0.55 0.55 0.0 0 0 167.4604 94.1162
  L 154.9421 88.9565
  A 0.55 0.55 0.0 0 0 154.2240 89.2554
  L 152.7607 92.8057
  A 0.55 0.55 0.0 0 0 153.0596 93.5238
  L 165.5779 98.6835
  A 0.55 0.55 0.0 0 0 166.2960 98.3846
  L 167.7593 94.8343
  Z
  M 276.8505 89.5506
  A 0.90 0.90 0.0 0 0 275.6746 89.0635
  L 263.7750 93.9925
  A 0.90 0.90 0.0 0 0 263.2879 95.1684
  L 264.4895 98.0694
  A 0.90 0.90 0.0 0 0 265.6654 98.5565
  L 277.5650 93.6275
  A 0.90 0.90 0.0 0 0 278.0521 92.4516
  L 276.8505 89.5506
  Z
  M 201.51 132.51
  Q 210.77 137.78 215.16 147.45
  A 0.37 0.37 0.0 0 0 215.84 147.45
  Q 220.17 137.92 229.21 132.66
  A 0.95 0.95 0.0 0 0 229.67 131.72
  Q 227.42 114.17 215.88 100.85
  Q 215.51 100.41 215.13 100.85
  Q 203.50 114.30 201.26 132.02
  A 0.49 0.49 0.0 0 0 201.51 132.51
  Z
  M 181.11 128.67
  C 186.27 128.64 190.95 128.73 196.03 130.04
  A 0.63 0.63 0.0 0 0 196.81 129.52
  Q 198.12 120.57 201.87 112.36
  A 1.48 1.46 -56.0 0 0 201.55 110.68
  C 197.15 106.46 193.85 105.13 187.30 104.43
  Q 182.17 103.88 177.22 102.63
  A 0.31 0.31 0.0 0 0 176.84 102.92
  C 176.69 112.40 173.84 119.64 179.95 128.08
  A 1.44 1.44 0.0 0 0 181.11 128.67
  Z
  M 234.67 130.21
  C 239.63 128.56 244.84 128.60 249.98 128.68
  A 1.15 1.11 -70.6 0 0 250.90 128.22
  C 256.84 120.19 254.61 112.29 254.27 103.18
  Q 254.25 102.59 253.67 102.72
  C 244.74 104.77 235.95 103.43 229.25 110.98
  A 1.32 1.31 -37.1 0 0 229.05 112.41
  Q 233.03 120.73 234.14 129.87
  A 0.41 0.40 77.3 0 0 234.67 130.21
  Z
  M 171.9529 112.3213
  A 0.79 0.79 0.0 0 0 171.1643 111.5300
  L 148.3043 111.4901
  A 0.79 0.79 0.0 0 0 147.5129 112.2787
  L 147.5071 115.6187
  A 0.79 0.79 0.0 0 0 148.2957 116.4100
  L 171.1557 116.4499
  A 0.79 0.79 0.0 0 0 171.9471 115.6613
  L 171.9529 112.3213
  Z
  M 283.3932 112.1612
  A 0.63 0.63 0.0 0 0 282.7643 111.5301
  L 259.7643 111.4899
  A 0.63 0.63 0.0 0 0 259.1332 112.1188
  L 259.1268 115.7788
  A 0.63 0.63 0.0 0 0 259.7557 116.4099
  L 282.7557 116.4501
  A 0.63 0.63 0.0 0 0 283.3868 115.8212
  L 283.3932 112.1612
  Z
  M 186.12 133.36
  Q 175.56 133.23 165.10 133.31
  A 0.37 0.37 0.0 0 0 164.74 133.73
  C 166.51 147.78 177.83 157.70 192.01 157.65
  Q 201.99 157.62 212.08 157.66
  Q 212.94 157.66 212.82 156.81
  C 210.87 143.28 200.07 133.52 186.12 133.36
  Z
  M 237.65 134.40
  C 227.56 137.11 219.15 146.19 218.02 157.21
  A 0.49 0.48 -87.4 0 0 218.51 157.75
  Q 228.65 157.57 238.94 157.49
  Q 255.49 157.36 263.42 143.12
  Q 265.82 138.81 266.04 133.81
  Q 266.07 133.26 265.51 133.26
  C 256.58 133.36 245.01 132.42 237.65 134.40
  Z
  M 209.51 162.49
  A 0.89 0.89 0.0 0 0 208.99 164.10
  L 213.69 167.48
  A 0.89 0.89 0.0 0 0 214.38 167.63
  L 218.80 166.76
  A 0.89 0.89 0.0 0 0 219.28 166.50
  L 221.63 163.99
  A 0.89 0.89 0.0 0 0 220.98 162.49
  L 209.51 162.49
  Z
  M 218.0040 172.6858
  A 0.60 0.60 0.0 0 0 217.4029 172.0868
  L 213.7430 172.0932
  A 0.60 0.60 0.0 0 0 213.1440 172.6943
  L 213.1760 191.0342
  A 0.60 0.60 0.0 0 0 213.7771 191.6332
  L 217.4370 191.6268
  A 0.60 0.60 0.0 0 0 218.0360 191.0257
  L 218.0040 172.6858
  Z
  M 46.17 232.03
  Q 52.90 231.87 59.63 231.98
  C 64.70 232.07 67.94 233.20 69.12 238.29
  Q 69.99 242.04 68.22 244.25
  C 66.46 246.43 62.55 249.22 65.18 252.32
  C 66.62 254.01 68.47 255.77 69.10 257.81
  C 71.08 264.30 65.16 269.38 58.75 267.89
  A 1.20 1.17 -14.8 0 1 58.20 267.58
  L 43.96 253.38
  A 3.42 3.41 -42.9 0 0 39.32 253.22
  L 38.62 253.82
  Q 35.43 256.57 38.37 259.58
  Q 46.36 267.80 53.58 274.89
  C 54.46 275.75 55.63 276.37 56.75 276.47
  C 64.66 277.23 71.77 275.19 75.76 267.77
  C 79.33 261.13 77.61 256.85 74.93 250.47
  A 1.23 1.21 -44.7 0 1 74.94 249.49
  C 75.97 247.26 77.21 244.97 77.57 242.67
  C 78.72 235.38 74.86 228.11 68.17 225.05
  Q 65.25 223.72 59.14 223.57
  Q 50.20 223.35 41.24 223.68
  Q 37.44 223.82 37.32 227.49
  Q 37.11 233.84 37.24 240.21
  C 37.29 242.87 38.20 243.80 39.94 245.56
  Q 45.88 251.58 54.79 260.25
  A 3.24 3.24 0.0 0 0 59.21 260.34
  L 59.87 259.76
  A 4.06 4.06 0.0 0 0 60.03 253.86
  L 45.99 239.85
  Q 45.59 239.45 45.58 238.89
  L 45.49 232.74
  Q 45.47 232.04 46.17 232.03
  Z
  M 227.37 246.19
  A 0.36 0.36 0.0 0 1 227.73 245.83
  L 239.53 245.83
  A 3.26 3.25 -88.7 0 0 242.78 242.72
  L 242.82 241.74
  Q 243.01 237.47 238.74 237.48
  L 227.95 237.49
  Q 227.40 237.49 227.39 236.95
  L 227.25 226.60
  A 3.02 3.02 0.0 0 0 224.06 223.63
  L 222.93 223.69
  Q 219.05 223.92 219.00 227.81
  Q 218.81 242.88 219.04 256.49
  C 219.23 267.74 227.29 276.36 238.75 276.28
  Q 243.12 276.25 242.95 272.50
  C 242.77 268.45 239.34 268.41 236.49 267.79
  C 225.59 265.43 227.24 254.52 227.37 246.19
  Z
  M 349.98 227.93
  C 337.06 217.40 317.97 226.94 317.79 243.50
  C 317.68 252.59 316.24 261.86 322.73 269.52
  C 329.63 277.67 341.91 278.89 350.14 272.14
  C 358.66 265.15 357.52 255.97 357.42 244.76
  Q 357.33 233.92 349.98 227.93
  Z
  M 93.30 261.71
  A 0.33 0.33 0.0 0 1 93.59 261.22
  Q 105.75 261.29 118.01 261.13
  C 122.22 261.08 123.23 258.29 122.61 254.58
  C 120.31 240.77 104.94 232.47 92.85 240.61
  C 78.79 250.08 81.85 271.45 98.48 275.84
  Q 108.67 278.53 116.69 270.95
  C 119.74 268.07 117.72 263.30 113.83 263.93
  C 111.56 264.30 109.72 266.72 107.80 267.30
  Q 97.84 270.31 93.30 261.71
  Z
  M 159.96 273.72
  L 160.48 274.98
  A 1.45 1.38 -85.6 0 0 161.02 275.64
  C 164.02 277.58 167.99 275.96 168.00 272.13
  Q 168.02 257.19 167.99 242.25
  C 167.98 237.53 161.71 235.62 160.06 240.22
  A 0.86 0.86 0.0 0 1 158.81 240.66
  C 145.22 232.34 128.25 242.21 128.98 258.32
  C 129.53 270.63 141.03 278.28 152.77 276.07
  C 155.05 275.64 156.97 274.47 159.11 273.40
  A 0.63 0.62 -24.1 0 1 159.96 273.72
  Z
  M 203.88 261.28
  C 200.58 270.38 186.54 270.33 183.09 261.24
  Q 182.28 259.10 182.28 253.63
  Q 182.28 248.11 182.10 241.49
  Q 181.99 237.65 178.15 237.55
  L 177.35 237.53
  A 3.08 3.08 0.0 0 0 174.19 240.48
  Q 173.78 249.54 174.01 257.50
  C 174.49 274.55 194.96 282.89 207.07 270.80
  C 214.83 263.07 213.28 251.29 212.82 241.57
  A 4.09 4.09 0.0 0 0 208.90 237.68
  L 208.01 237.64
  A 2.97 2.97 0.0 0 0 204.92 240.51
  Q 204.70 247.50 204.68 253.61
  Q 204.67 259.13 203.88 261.28
  Z
  M 279.81 274.01
  Q 278.29 279.74 272.24 281.76
  C 270.35 282.39 267.44 281.88 265.89 283.71
  C 263.51 286.51 265.79 291.21 269.50 290.73
  Q 283.21 288.95 287.34 277.66
  Q 288.83 273.57 288.83 264.67
  Q 288.83 253.58 288.73 241.94
  Q 288.70 238.02 284.79 237.76
  L 283.85 237.70
  A 3.02 3.02 0.0 0 0 280.63 240.63
  Q 280.43 247.71 280.41 254.08
  Q 280.39 258.30 279.84 260.11
  C 276.88 269.79 263.46 270.99 258.82 262.02
  Q 257.54 259.54 257.50 255.23
  Q 257.43 248.70 257.32 240.85
  A 3.15 3.15 0.0 0 0 254.18 237.74
  L 253.26 237.73
  Q 249.38 237.71 249.15 241.58
  C 248.38 254.58 247.58 267.60 259.23 273.98
  C 265.63 277.47 273.03 277.35 279.30 273.62
  Q 280.03 273.18 279.81 274.01
  Z
  M 371.82 253.75
  C 371.70 243.75 385.15 243.48 385.22 252.75
  Q 385.28 260.03 385.44 272.11
  Q 385.49 276.03 389.41 276.32
  L 390.34 276.39
  A 3.02 3.02 0.0 0 0 393.58 273.48
  Q 393.94 262.54 393.66 252.25
  C 393.37 241.12 382.50 234.89 372.45 238.91
  C 370.76 239.59 369.92 238.06 368.54 237.78
  C 364.45 236.95 363.51 240.22 363.49 243.61
  Q 363.41 256.44 363.55 272.20
  Q 363.59 276.14 367.52 276.37
  L 368.46 276.42
  A 3.04 3.04 0.0 0 0 371.68 273.46
  Q 371.93 263.04 371.82 253.75
  Z"
/>
<rect fill="#fbc40e" x="213.11" y="46.14" width="4.92" height="36.26" rx="0.37"/>
<path fill="#fbc40e" d="
  M 236.27 70.01
  L 232.07 68.33
  A 0.34 0.34 0.0 0 1 231.89 67.87
  L 233.66 64.16
  A 0.34 0.34 0.0 0 1 234.08 63.99
  L 237.75 65.23
  A 0.34 0.34 0.0 0 1 237.97 65.64
  L 236.73 69.79
  A 0.34 0.34 0.0 0 1 236.27 70.01
  Z"
/>
<rect fill="#fbc40e" x="-2.46" y="-2.46" transform="translate(196.05,66.90) rotate(-23.2)" width="4.92" height="4.92" rx="0.52"/>
<rect fill="#fbc40e" x="-2.43" y="-15.82" transform="translate(178.61,77.12) rotate(-45.0)" width="4.86" height="31.64" rx="0.43"/>
<rect fill="#fbc40e" x="-2.45" y="-15.76" transform="translate(252.36,77.08) rotate(44.9)" width="4.90" height="31.52" rx="0.46"/>
<path fill="#fbc40e" d="
  M 201.21 73.13
  L 205.31 82.94
  A 0.67 0.67 0.0 0 1 205.02 83.78
  L 201.88 85.57
  A 0.67 0.67 0.0 0 1 200.93 85.24
  L 196.88 75.32
  A 0.67 0.67 0.0 0 1 197.18 74.48
  L 200.27 72.80
  A 0.67 0.67 0.0 0 1 201.21 73.13
  Z"
/>
<rect fill="#fbc40e" x="-2.43" y="-6.08" transform="translate(229.92,79.18) rotate(22.3)" width="4.86" height="12.16" rx="0.68"/>
<rect fill="#fbc40e" x="-2.46" y="-2.51" transform="translate(146.86,88.22) rotate(19.1)" width="4.92" height="5.02" rx="1.00"/>
<rect fill="#fbc40e" x="-2.48" y="-2.50" transform="translate(284.14,88.20) rotate(-21.4)" width="4.96" height="5.00" rx="1.01"/>
<path fill="#fbc40e" d="
  M 214.93 94.15
  Q 209.19 99.80 205.01 106.66
  A 0.44 0.44 0.0 0 1 204.33 106.74
  Q 199.58 102.07 193.14 100.35
  Q 192.63 100.21 192.93 99.78
  C 204.06 83.04 225.75 83.49 237.89 99.18
  A 0.82 0.82 0.0 0 1 237.46 100.47
  Q 231.28 102.23 226.67 106.67
  Q 226.24 107.08 225.92 106.58
  Q 221.70 99.82 216.09 94.16
  A 0.83 0.82 45.2 0 0 214.93 94.15
  Z"
/>
<rect fill="#fbc40e" x="-7.32" y="-2.47" transform="translate(160.26,93.82) rotate(22.4)" width="14.64" height="4.94" rx="0.55"/>
<rect fill="#fbc40e" x="-7.34" y="-2.47" transform="translate(270.67,93.81) rotate(-22.5)" width="14.68" height="4.94" rx="0.90"/>
<path fill="#fbc40e" d="
  M 201.51 132.51
  A 0.49 0.49 0.0 0 1 201.26 132.02
  Q 203.50 114.30 215.13 100.85
  Q 215.51 100.41 215.88 100.85
  Q 227.42 114.17 229.67 131.72
  A 0.95 0.95 0.0 0 1 229.21 132.66
  Q 220.17 137.92 215.84 147.45
  A 0.37 0.37 0.0 0 1 215.16 147.45
  Q 210.77 137.78 201.51 132.51
  Z"
/>
<path fill="#fbc40e" d="
  M 196.03 130.04
  C 190.95 128.73 186.27 128.64 181.11 128.67
  A 1.44 1.44 0.0 0 1 179.95 128.08
  C 173.84 119.64 176.69 112.40 176.84 102.92
  A 0.31 0.31 0.0 0 1 177.22 102.63
  Q 182.17 103.88 187.30 104.43
  C 193.85 105.13 197.15 106.46 201.55 110.68
  A 1.48 1.46 -56.0 0 1 201.87 112.36
  Q 198.12 120.57 196.81 129.52
  A 0.63 0.63 0.0 0 1 196.03 130.04
  Z"
/>
<path fill="#fbc40e" d="
  M 249.98 128.68
  C 244.84 128.60 239.63 128.56 234.67 130.21
  A 0.41 0.40 77.3 0 1 234.14 129.87
  Q 233.03 120.73 229.05 112.41
  A 1.32 1.31 -37.1 0 1 229.25 110.98
  C 235.95 103.43 244.74 104.77 253.67 102.72
  Q 254.25 102.59 254.27 103.18
  C 254.61 112.29 256.84 120.19 250.90 128.22
  A 1.15 1.11 -70.6 0 1 249.98 128.68
  Z"
/>
<rect fill="#fbc40e" x="-12.22" y="-2.46" transform="translate(159.73,113.97) rotate(0.1)" width="24.44" height="4.92" rx="0.79"/>
<rect fill="#fbc40e" x="-12.13" y="-2.46" transform="translate(271.26,113.97) rotate(0.1)" width="24.26" height="4.92" rx="0.63"/>
<path fill="#fbc40e" d="
  M 186.12 133.36
  C 200.07 133.52 210.87 143.28 212.82 156.81
  Q 212.94 157.66 212.08 157.66
  Q 201.99 157.62 192.01 157.65
  C 177.83 157.70 166.51 147.78 164.74 133.73
  A 0.37 0.37 0.0 0 1 165.10 133.31
  Q 175.56 133.23 186.12 133.36
  Z"
/>
<path fill="#fbc40e" d="
  M 218.02 157.21
  C 219.15 146.19 227.56 137.11 237.65 134.40
  C 245.01 132.42 256.58 133.36 265.51 133.26
  Q 266.07 133.26 266.04 133.81
  Q 265.82 138.81 263.42 143.12
  Q 255.49 157.36 238.94 157.49
  Q 228.65 157.57 218.51 157.75
  A 0.49 0.48 -87.4 0 1 218.02 157.21
  Z"
/>
<path fill="#fbc40e" d="
  M 209.51 162.49
  L 220.98 162.49
  A 0.89 0.89 0.0 0 1 221.63 163.99
  L 219.28 166.50
  A 0.89 0.89 0.0 0 1 218.80 166.76
  L 214.38 167.63
  A 0.89 0.89 0.0 0 1 213.69 167.48
  L 208.99 164.10
  A 0.89 0.89 0.0 0 1 209.51 162.49
  Z"
/>
<rect fill="#fbc40e" x="-2.43" y="-9.77" transform="translate(215.59,181.86) rotate(-0.1)" width="4.86" height="19.54" rx="0.60"/>
<path fill="#fbc40e" d="
  M 45.49 232.74
  L 45.58 238.89
  Q 45.59 239.45 45.99 239.85
  L 60.03 253.86
  A 4.06 4.06 0.0 0 1 59.87 259.76
  L 59.21 260.34
  A 3.24 3.24 0.0 0 1 54.79 260.25
  Q 45.88 251.58 39.94 245.56
  C 38.20 243.80 37.29 242.87 37.24 240.21
  Q 37.11 233.84 37.32 227.49
  Q 37.44 223.82 41.24 223.68
  Q 50.20 223.35 59.14 223.57
  Q 65.25 223.72 68.17 225.05
  C 74.86 228.11 78.72 235.38 77.57 242.67
  C 77.21 244.97 75.97 247.26 74.94 249.49
  A 1.23 1.21 -44.7 0 0 74.93 250.47
  C 77.61 256.85 79.33 261.13 75.76 267.77
  C 71.77 275.19 64.66 277.23 56.75 276.47
  C 55.63 276.37 54.46 275.75 53.58 274.89
  Q 46.36 267.80 38.37 259.58
  Q 35.43 256.57 38.62 253.82
  L 39.32 253.22
  A 3.42 3.41 -42.9 0 1 43.96 253.38
  L 58.20 267.58
  A 1.20 1.17 -14.8 0 0 58.75 267.89
  C 65.16 269.38 71.08 264.30 69.10 257.81
  C 68.47 255.77 66.62 254.01 65.18 252.32
  C 62.55 249.22 66.46 246.43 68.22 244.25
  Q 69.99 242.04 69.12 238.29
  C 67.94 233.20 64.70 232.07 59.63 231.98
  Q 52.90 231.87 46.17 232.03
  Q 45.47 232.04 45.49 232.74
  Z"
/>
<path fill="#fbc40e" d="
  M 227.37 246.19
  C 227.24 254.52 225.59 265.43 236.49 267.79
  C 239.34 268.41 242.77 268.45 242.95 272.50
  Q 243.12 276.25 238.75 276.28
  C 227.29 276.36 219.23 267.74 219.04 256.49
  Q 218.81 242.88 219.00 227.81
  Q 219.05 223.92 222.93 223.69
  L 224.06 223.63
  A 3.02 3.02 0.0 0 1 227.25 226.60
  L 227.39 236.95
  Q 227.40 237.49 227.95 237.49
  L 238.74 237.48
  Q 243.01 237.47 242.82 241.74
  L 242.78 242.72
  A 3.26 3.25 -88.7 0 1 239.53 245.83
  L 227.73 245.83
  A 0.36 0.36 0.0 0 0 227.37 246.19
  Z"
/>
<path fill="#fbc40e" d="
  M 317.79 243.50
  C 317.97 226.94 337.06 217.40 349.98 227.93
  Q 357.33 233.92 357.42 244.76
  C 357.52 255.97 358.66 265.15 350.14 272.14
  C 341.91 278.89 329.63 277.67 322.73 269.52
  C 316.24 261.86 317.68 252.59 317.79 243.50
  Z
  M 349.12 242.83
  A 10.69 10.69 0.0 0 0 338.43 232.14
  L 337.03 232.14
  A 10.69 10.69 0.0 0 0 326.34 242.83
  L 326.34 257.27
  A 10.69 10.69 0.0 0 0 337.03 267.96
  L 338.43 267.96
  A 10.69 10.69 0.0 0 0 349.12 257.27
  L 349.12 242.83
  Z"
/>
<rect fill="#1a1926" x="326.34" y="232.14" width="22.78" height="35.82" rx="10.69"/>
<path fill="#fbc40e" d="
  M 93.30 261.71
  Q 97.84 270.31 107.80 267.30
  C 109.72 266.72 111.56 264.30 113.83 263.93
  C 117.72 263.30 119.74 268.07 116.69 270.95
  Q 108.67 278.53 98.48 275.84
  C 81.85 271.45 78.79 250.08 92.85 240.61
  C 104.94 232.47 120.31 240.77 122.61 254.58
  C 123.23 258.29 122.22 261.08 118.01 261.13
  Q 105.75 261.29 93.59 261.22
  A 0.33 0.33 0.0 0 0 93.30 261.71
  Z
  M 109.76 248.03
  A 8.02 8.02 0.0 0 0 104.18 245.89
  Q 97.10 245.99 93.49 251.78
  Q 92.90 252.72 94.02 252.73
  L 111.53 252.82
  Q 114.95 252.84 112.44 250.51
  L 109.76 248.03
  Z"
/>
<path fill="#fbc40e" d="
  M 159.11 273.40
  C 156.97 274.47 155.05 275.64 152.77 276.07
  C 141.03 278.28 129.53 270.63 128.98 258.32
  C 128.25 242.21 145.22 232.34 158.81 240.66
  A 0.86 0.86 0.0 0 0 160.06 240.22
  C 161.71 235.62 167.98 237.53 167.99 242.25
  Q 168.02 257.19 168.00 272.13
  C 167.99 275.96 164.02 277.58 161.02 275.64
  A 1.45 1.38 -85.6 0 1 160.48 274.98
  L 159.96 273.72
  A 0.63 0.62 -24.1 0 0 159.11 273.40
  Z
  M 159.51 257.00
  A 11.14 11.14 0.0 0 0 148.37 245.86
  A 11.14 11.14 0.0 0 0 137.23 257.00
  A 11.14 11.14 0.0 0 0 148.37 268.14
  A 11.14 11.14 0.0 0 0 159.51 257.00
  Z"
/>
<path fill="#fbc40e" d="
  M 183.09 261.24
  C 186.54 270.33 200.58 270.38 203.88 261.28
  Q 204.67 259.13 204.68 253.61
  Q 204.70 247.50 204.92 240.51
  A 2.97 2.97 0.0 0 1 208.01 237.64
  L 208.90 237.68
  A 4.09 4.09 0.0 0 1 212.82 241.57
  C 213.28 251.29 214.83 263.07 207.07 270.80
  C 194.96 282.89 174.49 274.55 174.01 257.50
  Q 173.78 249.54 174.19 240.48
  A 3.08 3.08 0.0 0 1 177.35 237.53
  L 178.15 237.55
  Q 181.99 237.65 182.10 241.49
  Q 182.28 248.11 182.28 253.63
  Q 182.28 259.10 183.09 261.24
  Z"
/>
<path fill="#fbc40e" d="
  M 279.81 274.01
  Q 280.03 273.18 279.30 273.62
  C 273.03 277.35 265.63 277.47 259.23 273.98
  C 247.58 267.60 248.38 254.58 249.15 241.58
  Q 249.38 237.71 253.26 237.73
  L 254.18 237.74
  A 3.15 3.15 0.0 0 1 257.32 240.85
  Q 257.43 248.70 257.50 255.23
  Q 257.54 259.54 258.82 262.02
  C 263.46 270.99 276.88 269.79 279.84 260.11
  Q 280.39 258.30 280.41 254.08
  Q 280.43 247.71 280.63 240.63
  A 3.02 3.02 0.0 0 1 283.85 237.70
  L 284.79 237.76
  Q 288.70 238.02 288.73 241.94
  Q 288.83 253.58 288.83 264.67
  Q 288.83 273.57 287.34 277.66
  Q 283.21 288.95 269.50 290.73
  C 265.79 291.21 263.51 286.51 265.89 283.71
  C 267.44 281.88 270.35 282.39 272.24 281.76
  Q 278.29 279.74 279.81 274.01
  Z"
/>
<path fill="#fbc40e" d="
  M 385.22 252.75
  C 385.15 243.48 371.70 243.75 371.82 253.75
  Q 371.93 263.04 371.68 273.46
  A 3.04 3.04 0.0 0 1 368.46 276.42
  L 367.52 276.37
  Q 363.59 276.14 363.55 272.20
  Q 363.41 256.44 363.49 243.61
  C 363.51 240.22 364.45 236.95 368.54 237.78
  C 369.92 238.06 370.76 239.59 372.45 238.91
  C 382.50 234.89 393.37 241.12 393.66 252.25
  Q 393.94 262.54 393.58 273.48
  A 3.02 3.02 0.0 0 1 390.34 276.39
  L 389.41 276.32
  Q 385.49 276.03 385.44 272.11
  Q 385.28 260.03 385.22 252.75
  Z"
/>
<circle fill="#1a1926" cx="148.37" cy="257.00" r="11.14"/>
<path fill="#1a1926" d="
  M 109.76 248.03
  L 112.44 250.51
  Q 114.95 252.84 111.53 252.82
  L 94.02 252.73
  Q 92.90 252.72 93.49 251.78
  Q 97.10 245.99 104.18 245.89
  A 8.02 8.02 0.0 0 1 109.76 248.03
  Z"
/>
</svg>
