<?xml version="1.0" encoding="UTF-8" standalone="no"?>
<!DOCTYPE svg PUBLIC "-//W3C//DTD SVG 1.1//EN" "http://www.w3.org/Graphics/SVG/1.1/DTD/svg11.dtd">
<svg xmlns="http://www.w3.org/2000/svg" version="1.1" viewBox="0.00 0.00 228.00 161.00">
<g stroke-width="2.00" fill="none" stroke-linecap="butt">
<path stroke="#ffe486" vector-effect="non-scaling-stroke" d="
  M 108.45 39.80
  A 1.68 1.68 0.0 0 0 106.77 38.12
  L 106.63 38.12
  A 1.68 1.68 0.0 0 0 104.95 39.80
  L 104.95 63.72
  A 1.68 1.68 0.0 0 0 106.63 65.40
  L 106.77 65.40
  A 1.68 1.68 0.0 0 0 108.45 63.72
  L 108.45 39.80"
/>
<path stroke="#ffe486" vector-effect="non-scaling-stroke" d="
  M 93.7524 55.1363
  A 1.98 1.75 37.9 0 0 93.2650 52.5391
  A 1.98 1.75 37.9 0 0 90.6276 52.7037
  A 1.98 1.75 37.9 0 0 91.1150 55.3009
  A 1.98 1.75 37.9 0 0 93.7524 55.1363"
/>
<path stroke="#ffe486" vector-effect="non-scaling-stroke" d="
  M 122.75 53.85
  A 1.81 1.81 0.0 0 0 120.94 52.04
  A 1.81 1.81 0.0 0 0 119.13 53.85
  A 1.81 1.81 0.0 0 0 120.94 55.66
  A 1.81 1.81 0.0 0 0 122.75 53.85"
/>
<path stroke="#ffe486" vector-effect="non-scaling-stroke" d="
  M 142.2671 55.5271
  A 1.78 1.78 0.0 0 0 142.2583 53.0098
  L 142.2015 52.9534
  A 1.78 1.78 0.0 0 0 139.6842 52.9622
  L 125.4929 67.2529
  A 1.78 1.78 0.0 0 0 125.5017 69.7702
  L 125.5585 69.8266
  A 1.78 1.78 0.0 0 0 128.0758 69.8178
  L 142.2671 55.5271"
/>
<path stroke="#ffe486" vector-effect="non-scaling-stroke" d="
  M 87.8791 69.8033
  A 1.85 1.85 0.0 0 0 87.8746 67.1870
  L 73.6936 53.0555
  A 1.85 1.85 0.0 0 0 71.0773 53.0600
  L 71.0209 53.1167
  A 1.85 1.85 0.0 0 0 71.0254 55.7330
  L 85.2064 69.8645
  A 1.85 1.85 0.0 0 0 87.8227 69.8600
  L 87.8791 69.8033"
/>
<path stroke="#ffe486" vector-effect="non-scaling-stroke" d="
  M 96.3848 59.2555
  A 1.52 1.52 0.0 0 0 94.4047 58.4191
  L 93.9414 58.6072
  A 1.52 1.52 0.0 0 0 93.1049 60.5874
  L 95.4752 66.4245
  A 1.52 1.52 0.0 0 0 97.4553 67.2609
  L 97.9186 67.0728
  A 1.52 1.52 0.0 0 0 98.7551 65.0926
  L 96.3848 59.2555"
/>
<path stroke="#ffe486" vector-effect="non-scaling-stroke" d="
  M 120.2449 60.6833
  A 1.40 1.40 0.0 0 0 119.5064 58.8463
  L 118.8074 58.5481
  A 1.40 1.40 0.0 0 0 116.9703 59.2866
  L 114.4751 65.1367
  A 1.40 1.40 0.0 0 0 115.2136 66.9737
  L 115.9126 67.2719
  A 1.40 1.40 0.0 0 0 117.7497 66.5334
  L 120.2449 60.6833"
/>
<path stroke="#ffe486" vector-effect="non-scaling-stroke" d="
  M 57.3134 71.3510
  A 2.09 1.79 50.0 0 0 57.3412 68.5994
  A 2.09 1.79 50.0 0 0 54.6266 68.1490
  A 2.09 1.79 50.0 0 0 54.5988 70.9006
  A 2.09 1.79 50.0 0 0 57.3134 71.3510"
/>
<path stroke="#ffe486" vector-effect="non-scaling-stroke" d="
  M 156.3331 71.5281
  A 2.16 1.72 119.6 0 0 158.8955 70.4996
  A 2.16 1.72 119.6 0 0 158.4669 67.7719
  A 2.16 1.72 119.6 0 0 155.9045 68.8004
  A 2.16 1.72 119.6 0 0 156.3331 71.5281"
/>
<path stroke="#ffe486" vector-effect="non-scaling-stroke" d="
  M 107.52 74.12
  L 114.16 82.49
  A 0.72 0.71 -33.8 0 0 115.08 82.67
  L 122.67 78.39
  A 0.78 0.78 0.0 0 0 122.90 77.23
  C 114.28 66.18 98.91 66.04 90.36 77.44
  A 0.90 0.89 -62.0 0 0 90.78 78.82
  Q 94.79 80.22 97.94 83.07
  A 0.80 0.79 36.6 0 0 99.14 82.90
  Q 102.18 78.02 106.34 74.04
  A 0.81 0.80 -40.8 0 1 107.52 74.12"
/>
<path stroke="#ffe486" vector-effect="non-scaling-stroke" d="
  M 70.9579 75.7333
  A 1.75 1.75 0.0 0 0 69.9869 73.4569
  L 62.8982 70.6072
  A 1.75 1.75 0.0 0 0 60.6218 71.5782
  L 60.5621 71.7267
  A 1.75 1.75 0.0 0 0 61.5331 74.0031
  L 68.6218 76.8528
  A 1.75 1.75 0.0 0 0 70.8982 75.8818
  L 70.9579 75.7333"
/>
<path stroke="#ffe486" vector-effect="non-scaling-stroke" d="
  M 152.6999 71.4430
  A 1.75 1.75 0.0 0 0 150.4004 70.5279
  L 143.1998 73.6290
  A 1.75 1.75 0.0 0 0 142.2847 75.9285
  L 142.3401 76.0570
  A 1.75 1.75 0.0 0 0 144.6396 76.9721
  L 151.8402 73.8710
  A 1.75 1.75 0.0 0 0 152.7553 71.5715
  L 152.6999 71.4430"
/>
<path stroke="#ffe486" vector-effect="non-scaling-stroke" d="
  M 106.28 79.11
  C 100.79 85.45 97.14 93.33 96.40 101.78
  A 0.93 0.92 -72.9 0 0 96.86 102.66
  Q 103.31 106.40 106.37 113.19
  A 0.31 0.31 0.0 0 0 106.93 113.19
  Q 109.79 106.76 115.80 103.09
  A 2.46 2.46 0.0 0 0 116.95 100.60
  Q 115.05 88.37 106.92 79.11
  Q 106.60 78.74 106.28 79.11"
/>
<path stroke="#ffe486" vector-effect="non-scaling-stroke" d="
  M 92.61 99.74
  L 96.38 87.69
  A 2.19 1.83 -64.0 0 0 95.83 85.46
  C 90.81 81.49 84.71 81.18 78.46 80.56
  A 0.58 0.57 -86.3 0 0 77.83 81.12
  C 77.71 84.87 76.91 89.63 77.65 93.10
  C 78.05 94.98 79.47 99.19 81.75 99.25
  Q 86.53 99.39 91.63 100.33
  A 0.86 0.86 0.0 0 0 92.61 99.74"
/>
<path stroke="#ffe486" vector-effect="non-scaling-stroke" d="
  M 116.85 87.07
  L 120.64 100.10
  Q 120.73 100.39 121.02 100.35
  L 132.71 99.02
  A 0.66 0.64 14.2 0 0 133.18 98.75
  C 136.92 93.62 135.84 87.11 135.45 81.24
  A 0.76 0.75 -7.6 0 0 134.54 80.55
  C 127.91 81.88 122.71 81.08 117.18 85.95
  A 1.09 1.08 61.8 0 0 116.85 87.07"
/>
<path stroke="#ffe486" vector-effect="non-scaling-stroke" d="
  M 74.7196 88.4439
  A 1.54 1.54 0.0 0 0 73.1769 86.9066
  L 57.7969 86.9334
  A 1.54 1.54 0.0 0 0 56.2596 88.4761
  L 56.2604 88.9361
  A 1.54 1.54 0.0 0 0 57.8031 90.4734
  L 73.1831 90.4466
  A 1.54 1.54 0.0 0 0 74.7204 88.9039
  L 74.7196 88.4439"
/>
<path stroke="#ffe486" vector-effect="non-scaling-stroke" d="
  M 157.1766 88.3238
  A 1.51 1.51 0.0 0 0 155.6508 86.8297
  L 140.2917 86.9905
  A 1.51 1.51 0.0 0 0 138.7976 88.5163
  L 138.8034 89.0762
  A 1.51 1.51 0.0 0 0 140.3292 90.5703
  L 155.6883 90.4095
  A 1.51 1.51 0.0 0 0 157.1824 88.8837
  L 157.1766 88.3238"
/>
<path stroke="#ffe486" vector-effect="non-scaling-stroke" d="
  M 104.21 120.91
  A 0.50 0.48 -87.2 0 0 104.68 120.47
  Q 104.75 119.80 104.53 118.97
  Q 101.88 108.75 93.17 104.87
  C 87.01 102.13 77.39 102.91 70.27 103.08
  A 1.24 1.24 0.0 0 0 69.11 104.66
  C 74.31 122.83 88.20 121.26 104.21 120.91"
/>
<path stroke="#ffe486" vector-effect="non-scaling-stroke" d="
  M 128.88 103.13
  C 118.30 103.44 109.96 109.95 108.83 120.41
  A 0.55 0.55 0.0 0 0 109.39 121.02
  C 115.95 120.97 124.75 121.69 130.14 120.14
  C 138.20 117.82 142.35 111.77 144.42 103.72
  A 0.55 0.55 0.0 0 0 143.90 103.03
  Q 136.44 102.90 128.88 103.13"
/>
<path stroke="#ffe486" vector-effect="non-scaling-stroke" d="
  M 110.75 124.48
  L 102.53 124.50
  A 0.18 0.18 0.0 0 0 102.35 124.68
  L 102.35 124.76
  A 3.84 3.26 -0.1 0 0 106.19 128.01
  L 107.09 128.01
  A 3.84 3.26 -0.1 0 0 110.93 124.74
  L 110.93 124.66
  A 0.18 0.18 0.0 0 0 110.75 124.48"
/>
<path stroke="#ffe486" vector-effect="non-scaling-stroke" d="
  M 108.43 132.84
  A 1.56 1.56 0.0 0 0 106.87 131.28
  L 106.53 131.28
  A 1.56 1.56 0.0 0 0 104.97 132.84
  L 104.97 144.76
  A 1.56 1.56 0.0 0 0 106.53 146.32
  L 106.87 146.32
  A 1.56 1.56 0.0 0 0 108.43 144.76
  L 108.43 132.84"
/>
</g>
<path fill="#ffc90c" d="
  M 0.00 0.00
  L 228.00 0.00
  L 228.00 161.00
  L 0.00 161.00
  L 0.00 0.00
  Z
  M 108.45 39.80
  A 1.68 1.68 0.0 0 0 106.77 38.12
  L 106.63 38.12
  A 1.68 1.68 0.0 0 0 104.95 39.80
  L 104.95 63.72
  A 1.68 1.68 0.0 0 0 106.63 65.40
  L 106.77 65.40
  A 1.68 1.68 0.0 0 0 108.45 63.72
  L 108.45 39.80
  Z
  M 93.7524 55.1363
  A 1.98 1.75 37.9 0 0 93.2650 52.5391
  A 1.98 1.75 37.9 0 0 90.6276 52.7037
  A 1.98 1.75 37.9 0 0 91.1150 55.3009
  A 1.98 1.75 37.9 0 0 93.7524 55.1363
  Z
  M 122.75 53.85
  A 1.81 1.81 0.0 0 0 120.94 52.04
  A 1.81 1.81 0.0 0 0 119.13 53.85
  A 1.81 1.81 0.0 0 0 120.94 55.66
  A 1.81 1.81 0.0 0 0 122.75 53.85
  Z
  M 142.2671 55.5271
  A 1.78 1.78 0.0 0 0 142.2583 53.0098
  L 142.2015 52.9534
  A 1.78 1.78 0.0 0 0 139.6842 52.9622
  L 125.4929 67.2529
  A 1.78 1.78 0.0 0 0 125.5017 69.7702
  L 125.5585 69.8266
  A 1.78 1.78 0.0 0 0 128.0758 69.8178
  L 142.2671 55.5271
  Z
  M 87.8791 69.8033
  A 1.85 1.85 0.0 0 0 87.8746 67.1870
  L 73.6936 53.0555
  A 1.85 1.85 0.0 0 0 71.0773 53.0600
  L 71.0209 53.1167
  A 1.85 1.85 0.0 0 0 71.0254 55.7330
  L 85.2064 69.8645
  A 1.85 1.85 0.0 0 0 87.8227 69.8600
  L 87.8791 69.8033
  Z
  M 96.3848 59.2555
  A 1.52 1.52 0.0 0 0 94.4047 58.4191
  L 93.9414 58.6072
  A 1.52 1.52 0.0 0 0 93.1049 60.5874
  L 95.4752 66.4245
  A 1.52 1.52 0.0 0 0 97.4553 67.2609
  L 97.9186 67.0728
  A 1.52 1.52 0.0 0 0 98.7551 65.0926
  L 96.3848 59.2555
  Z
  M 120.2449 60.6833
  A 1.40 1.40 0.0 0 0 119.5064 58.8463
  L 118.8074 58.5481
  A 1.40 1.40 0.0 0 0 116.9703 59.2866
  L 114.4751 65.1367
  A 1.40 1.40 0.0 0 0 115.2136 66.9737
  L 115.9126 67.2719
  A 1.40 1.40 0.0 0 0 117.7497 66.5334
  L 120.2449 60.6833
  Z
  M 57.3134 71.3510
  A 2.09 1.79 50.0 0 0 57.3412 68.5994
  A 2.09 1.79 50.0 0 0 54.6266 68.1490
  A 2.09 1.79 50.0 0 0 54.5988 70.9006
  A 2.09 1.79 50.0 0 0 57.3134 71.3510
  Z
  M 156.3331 71.5281
  A 2.16 1.72 119.6 0 0 158.8955 70.4996
  A 2.16 1.72 119.6 0 0 158.4669 67.7719
  A 2.16 1.72 119.6 0 0 155.9045 68.8004
  A 2.16 1.72 119.6 0 0 156.3331 71.5281
  Z
  M 107.52 74.12
  L 114.16 82.49
  A 0.72 0.71 -33.8 0 0 115.08 82.67
  L 122.67 78.39
  A 0.78 0.78 0.0 0 0 122.90 77.23
  C 114.28 66.18 98.91 66.04 90.36 77.44
  A 0.90 0.89 -62.0 0 0 90.78 78.82
  Q 94.79 80.22 97.94 83.07
  A 0.80 0.79 36.6 0 0 99.14 82.90
  Q 102.18 78.02 106.34 74.04
  A 0.81 0.80 -40.8 0 1 107.52 74.12
  Z
  M 70.9579 75.7333
  A 1.75 1.75 0.0 0 0 69.9869 73.4569
  L 62.8982 70.6072
  A 1.75 1.75 0.0 0 0 60.6218 71.5782
  L 60.5621 71.7267
  A 1.75 1.75 0.0 0 0 61.5331 74.0031
  L 68.6218 76.8528
  A 1.75 1.75 0.0 0 0 70.8982 75.8818
  L 70.9579 75.7333
  Z
  M 152.6999 71.4430
  A 1.75 1.75 0.0 0 0 150.4004 70.5279
  L 143.1998 73.6290
  A 1.75 1.75 0.0 0 0 142.2847 75.9285
  L 142.3401 76.0570
  A 1.75 1.75 0.0 0 0 144.6396 76.9721
  L 151.8402 73.8710
  A 1.75 1.75 0.0 0 0 152.7553 71.5715
  L 152.6999 71.4430
  Z
  M 106.28 79.11
  C 100.79 85.45 97.14 93.33 96.40 101.78
  A 0.93 0.92 -72.9 0 0 96.86 102.66
  Q 103.31 106.40 106.37 113.19
  A 0.31 0.31 0.0 0 0 106.93 113.19
  Q 109.79 106.76 115.80 103.09
  A 2.46 2.46 0.0 0 0 116.95 100.60
  Q 115.05 88.37 106.92 79.11
  Q 106.60 78.74 106.28 79.11
  Z
  M 92.61 99.74
  L 96.38 87.69
  A 2.19 1.83 -64.0 0 0 95.83 85.46
  C 90.81 81.49 84.71 81.18 78.46 80.56
  A 0.58 0.57 -86.3 0 0 77.83 81.12
  C 77.71 84.87 76.91 89.63 77.65 93.10
  C 78.05 94.98 79.47 99.19 81.75 99.25
  Q 86.53 99.39 91.63 100.33
  A 0.86 0.86 0.0 0 0 92.61 99.74
  Z
  M 116.85 87.07
  L 120.64 100.10
  Q 120.73 100.39 121.02 100.35
  L 132.71 99.02
  A 0.66 0.64 14.2 0 0 133.18 98.75
  C 136.92 93.62 135.84 87.11 135.45 81.24
  A 0.76 0.75 -7.6 0 0 134.54 80.55
  C 127.91 81.88 122.71 81.08 117.18 85.95
  A 1.09 1.08 61.8 0 0 116.85 87.07
  Z
  M 74.7196 88.4439
  A 1.54 1.54 0.0 0 0 73.1769 86.9066
  L 57.7969 86.9334
  A 1.54 1.54 0.0 0 0 56.2596 88.4761
  L 56.2604 88.9361
  A 1.54 1.54 0.0 0 0 57.8031 90.4734
  L 73.1831 90.4466
  A 1.54 1.54 0.0 0 0 74.7204 88.9039
  L 74.7196 88.4439
  Z
  M 157.1766 88.3238
  A 1.51 1.51 0.0 0 0 155.6508 86.8297
  L 140.2917 86.9905
  A 1.51 1.51 0.0 0 0 138.7976 88.5163
  L 138.8034 89.0762
  A 1.51 1.51 0.0 0 0 140.3292 90.5703
  L 155.6883 90.4095
  A 1.51 1.51 0.0 0 0 157.1824 88.8837
  L 157.1766 88.3238
  Z
  M 104.21 120.91
  A 0.50 0.48 -87.2 0 0 104.68 120.47
  Q 104.75 119.80 104.53 118.97
  Q 101.88 108.75 93.17 104.87
  C 87.01 102.13 77.39 102.91 70.27 103.08
  A 1.24 1.24 0.0 0 0 69.11 104.66
  C 74.31 122.83 88.20 121.26 104.21 120.91
  Z
  M 128.88 103.13
  C 118.30 103.44 109.96 109.95 108.83 120.41
  A 0.55 0.55 0.0 0 0 109.39 121.02
  C 115.95 120.97 124.75 121.69 130.14 120.14
  C 138.20 117.82 142.35 111.77 144.42 103.72
  A 0.55 0.55 0.0 0 0 143.90 103.03
  Q 136.44 102.90 128.88 103.13
  Z
  M 110.75 124.48
  L 102.53 124.50
  A 0.18 0.18 0.0 0 0 102.35 124.68
  L 102.35 124.76
  A 3.84 3.26 -0.1 0 0 106.19 128.01
  L 107.09 128.01
  A 3.84 3.26 -0.1 0 0 110.93 124.74
  L 110.93 124.66
  A 0.18 0.18 0.0 0 0 110.75 124.48
  Z
  M 108.43 132.84
  A 1.56 1.56 0.0 0 0 106.87 131.28
  L 106.53 131.28
  A 1.56 1.56 0.0 0 0 104.97 132.84
  L 104.97 144.76
  A 1.56 1.56 0.0 0 0 106.53 146.32
  L 106.87 146.32
  A 1.56 1.56 0.0 0 0 108.43 144.76
  L 108.43 132.84
  Z"
/>
<rect fill="#ffffff" x="104.95" y="38.12" width="3.50" height="27.28" rx="1.68"/>
<ellipse fill="#ffffff" cx="0.00" cy="0.00" transform="translate(92.19,53.92) rotate(37.9)" rx="1.98" ry="1.75"/>
<circle fill="#ffffff" cx="120.94" cy="53.85" r="1.81"/>
<rect fill="#ffffff" x="-1.82" y="-11.85" transform="translate(133.88,61.39) rotate(44.8)" width="3.64" height="23.70" rx="1.78"/>
<rect fill="#ffffff" x="-11.86" y="-1.89" transform="translate(79.45,61.46) rotate(44.9)" width="23.72" height="3.78" rx="1.85"/>
<rect fill="#ffffff" x="-1.77" y="-4.67" transform="translate(95.93,62.84) rotate(-22.1)" width="3.54" height="9.34" rx="1.52"/>
<rect fill="#ffffff" x="-1.78" y="-4.58" transform="translate(117.36,62.91) rotate(23.1)" width="3.56" height="9.16" rx="1.40"/>
<ellipse fill="#ffffff" cx="0.00" cy="0.00" transform="translate(55.97,69.75) rotate(50.0)" rx="2.09" ry="1.79"/>
<ellipse fill="#ffffff" cx="0.00" cy="0.00" transform="translate(157.40,69.65) rotate(119.6)" rx="2.16" ry="1.72"/>
<path fill="#ffffff" d="
  M 107.52 74.12
  A 0.81 0.80 -40.8 0 0 106.34 74.04
  Q 102.18 78.02 99.14 82.90
  A 0.80 0.79 36.6 0 1 97.94 83.07
  Q 94.79 80.22 90.78 78.82
  A 0.90 0.89 -62.0 0 1 90.36 77.44
  C 98.91 66.04 114.28 66.18 122.90 77.23
  A 0.78 0.78 0.0 0 1 122.67 78.39
  L 115.08 82.67
  A 0.72 0.71 -33.8 0 1 114.16 82.49
  L 107.52 74.12
  Z"
/>
<rect fill="#ffffff" x="-5.57" y="-1.83" transform="translate(65.76,73.73) rotate(21.9)" width="11.14" height="3.66" rx="1.75"/>
<rect fill="#ffffff" x="-5.67" y="-1.82" transform="translate(147.52,73.75) rotate(-23.3)" width="11.34" height="3.64" rx="1.75"/>
<path fill="#ffffff" d="
  M 96.40 101.78
  C 97.14 93.33 100.79 85.45 106.28 79.11
  Q 106.60 78.74 106.92 79.11
  Q 115.05 88.37 116.95 100.60
  A 2.46 2.46 0.0 0 1 115.80 103.09
  Q 109.79 106.76 106.93 113.19
  A 0.31 0.31 0.0 0 1 106.37 113.19
  Q 103.31 106.40 96.86 102.66
  A 0.93 0.92 -72.9 0 1 96.40 101.78
  Z"
/>
<path fill="#ffffff" d="
  M 96.38 87.69
  L 92.61 99.74
  A 0.86 0.86 0.0 0 1 91.63 100.33
  Q 86.53 99.39 81.75 99.25
  C 79.47 99.19 78.05 94.98 77.65 93.10
  C 76.91 89.63 77.71 84.87 77.83 81.12
  A 0.58 0.57 -86.3 0 1 78.46 80.56
  C 84.71 81.18 90.81 81.49 95.83 85.46
  A 2.19 1.83 -64.0 0 1 96.38 87.69
  Z"
/>
<path fill="#ffffff" d="
  M 116.85 87.07
  A 1.09 1.08 61.8 0 1 117.18 85.95
  C 122.71 81.08 127.91 81.88 134.54 80.55
  A 0.76 0.75 -7.6 0 1 135.45 81.24
  C 135.84 87.11 136.92 93.62 133.18 98.75
  A 0.66 0.64 14.2 0 1 132.71 99.02
  L 121.02 100.35
  Q 120.73 100.39 120.64 100.10
  L 116.85 87.07
  Z"
/>
<rect fill="#ffffff" x="-9.23" y="-1.77" transform="translate(65.49,88.69) rotate(-0.1)" width="18.46" height="3.54" rx="1.54"/>
<rect fill="#ffffff" x="-9.19" y="-1.79" transform="translate(147.99,88.70) rotate(-0.6)" width="18.38" height="3.58" rx="1.51"/>
<path fill="#ffffff" d="
  M 104.21 120.91
  C 88.20 121.26 74.31 122.83 69.11 104.66
  A 1.24 1.24 0.0 0 1 70.27 103.08
  C 77.39 102.91 87.01 102.13 93.17 104.87
  Q 101.88 108.75 104.53 118.97
  Q 104.75 119.80 104.68 120.47
  A 0.50 0.48 -87.2 0 1 104.21 120.91
  Z"
/>
<path fill="#ffffff" d="
  M 128.88 103.13
  Q 136.44 102.90 143.90 103.03
  A 0.55 0.55 0.0 0 1 144.42 103.72
  C 142.35 111.77 138.20 117.82 130.14 120.14
  C 124.75 121.69 115.95 120.97 109.39 121.02
  A 0.55 0.55 0.0 0 1 108.83 120.41
  C 109.96 109.95 118.30 103.44 128.88 103.13
  Z"
/>
<path fill="#ffffff" d="
  M 110.75 124.48
  A 0.18 0.18 0.0 0 1 110.93 124.66
  L 110.93 124.74
  A 3.84 3.26 -0.1 0 1 107.09 128.01
  L 106.19 128.01
  A 3.84 3.26 -0.1 0 1 102.35 124.76
  L 102.35 124.68
  A 0.18 0.18 0.0 0 1 102.53 124.50
  L 110.75 124.48
  Z"
/>
<rect fill="#ffffff" x="104.97" y="131.28" width="3.46" height="15.04" rx="1.56"/>
</svg>
